# xmcd CD database file
#
# Track frame offsets:
#	150
#	115275
#	230213
#
# Disc length: 4648 seconds
#
# Revision: 0
# Processed by: cddbd v1.5.2PL0 Copyright (c) Steve Scherf et al.
# Submitted via: CDex 1.70beta2
#
DISCID=24122603
DTITLE=Global Television - Relaxing with Nature and Music Vol. 1
DYEAR=2007
DGENRE=New Age
TTITLE0=Dunes (Marvin Bernstein)
TTITLE1=Canyons (Peter Horner)
TTITLE2=New desert Oasis (Klaus Back/Tini Beier)
EXTD=YEAR: 2007
EXTT0=
EXTT1=
EXTT2=
PLAYORDER=
